<?xml version="1.0" encoding="utf-8"?>
<!-- Generator: Adobe Illustrator 24.1.2, SVG Export Plug-In . SVG Version: 6.00 Build 0)  -->
<svg version="1.1" id="Layer_1" xmlns="http://www.w3.org/2000/svg" xmlns:xlink="http://www.w3.org/1999/xlink" x="0px" y="0px"
	 viewBox="0 0 166 52" style="enable-background:new 0 0 166 52;" xml:space="preserve">
<style type="text/css">
	.st0{display:none;}
	.st1{display:inline;fill-rule:evenodd;clip-rule:evenodd;fill:#FFFFFF;}
	.st2{display:inline;fill:#FFFFFF;}
	.st3{font-family:'Arial-BoldMT';}
	.st4{font-size:25px;}
	.st5{letter-spacing:-1;}
	.st6{fill:#FFFFFF;}
	.st7{font-family:'Druk-Heavy';}
	.st8{font-size:47.8215px;}
	.st9{font-family:'Nexa-BoldItalic';}
	.st10{font-size:21.8058px;}
</style>
<g class="st0">
	<path class="st1" d="M24.8,4.4l-9.8,16.8c-2.9-5.1-3.1-10.6-0.4-14.6c3.1-4.4,9.1-6,15.7-4.7c-10.2-3.8-20.2-2-24.8,4.9
		c-4.4,6.6-2.7,16.2,4,23.9L0,47.2h49.4l-3.1-5.3c1.8-1.2,3.4-2.7,4.7-4.4c3.3-5.1,3.1-12-0.4-18.4c1.4,3.7,1.1,7.9-0.9,11.3
		c-1.8,2.4-4.4,4.1-7.3,4.7L37,25.7L24.8,4.4z M17.5,1.7c-1.7,1-3.2,2.3-4.2,4c-0.7,0.7-1.1,1.5-1.3,2.4c-1.6,4.2-0.9,8.6,0.9,12.6
		c2.4,4.5,5.8,8.4,10,11.3c4.2,2.8,9.1,4.5,14.2,4.9c4.4,0.2,8.9-0.7,12-3.8c0.9-0.4,1.3-1.3,2-2l0.7-1.3c0,2.4-0.7,4.7-2,6.6
		c-0.6,0.8-1.3,1.5-2,2.2c-3.3,3.1-8.2,4.2-12.9,3.8c-5.9-0.4-11.6-2.4-16.4-5.8c-5-3.3-9-7.8-11.7-13.1C4.9,19.4,4,14.6,5.5,10.1
		c0.3-0.9,0.7-1.7,1.3-2.4c0.5-0.8,1.1-1.6,1.8-2.2C11.1,3.3,14.2,2,17.5,1.7L17.5,1.7z M24.8,16.3l10.9,18.8c1,0.2,2.1,0.3,3.1,0.2
		l-4.7-8l-9.3-16.2l-7.8,13.1c0.5,0.8,1.1,1.5,1.8,2.2L24.8,16.3z M30.8,43.6c-2.7-0.5-5.4-1.3-8-2.4H10.4l3.3-5.8
		c-0.7-0.6-1.2-1.3-1.8-2L6,43.6L30.8,43.6z"/>
	<text transform="matrix(1 0 0 1 58 46)" class="st2 st3 st4 st5">ClassiList</text>
</g>
<g>
	<text transform="matrix(1 0 0 1 14.1933 41.7097)" class="st6 st7 st8">B2C</text>
	<text transform="matrix(1 0 0 1 77.0137 41.7097)" class="st6 st9 st10">STORE</text>
</g>
</svg>
